<svg width="32" height="20" viewBox="0 0 32 20" fill="none" xmlns="http://www.w3.org/2000/svg">
<g clip-path="url(#clip0_384_625)">
<path d="M9.47942 0C10.4382 0 11.3124 0.0839528 12.102 0.252176C12.8916 0.420241 13.5684 0.695949 14.1323 1.07835C14.6963 1.46122 15.1334 1.97019 15.4436 2.60524C15.7538 3.24029 15.9089 4.02449 15.9089 4.95814C15.9089 5.96669 15.6786 6.80701 15.2181 7.47911C14.7572 8.15137 14.076 8.70215 13.1737 9.13177C14.4144 9.48666 15.3402 10.1079 15.9514 10.9945C16.5619 11.8817 16.8681 12.951 16.8681 14.2019C16.8681 15.2102 16.6707 16.0835 16.2757 16.8212C15.8811 17.5592 15.3497 18.1613 14.6827 18.6275C14.0152 19.0946 13.2537 19.4398 12.3985 19.6643C11.5378 19.8889 10.6516 20.0017 9.76178 20.0002H0.00439453V0H9.47942ZM8.91549 8.09556C9.70511 8.09556 10.3536 7.90889 10.8613 7.53524C11.3689 7.1619 11.6226 6.55484 11.6226 5.71451C11.6226 5.24784 11.5381 4.86481 11.3689 4.56605C11.1997 4.26744 10.9741 4.03355 10.6921 3.8658C10.4101 3.69758 10.0858 3.58135 9.7192 3.51552C9.34217 3.44939 8.95997 3.41661 8.5771 3.41758H4.43177V8.09572L8.91549 8.09556ZM9.1692 16.5827C9.60139 16.5827 10.0152 16.5406 10.4099 16.4567C10.8046 16.3725 11.1523 16.2325 11.4534 16.0363C11.7539 15.8405 11.9936 15.5742 12.1724 15.2379C12.3509 14.9019 12.4402 14.4725 12.4402 13.9494C12.4402 12.9227 12.1486 12.1897 11.5661 11.7507C10.9831 11.3118 10.2124 11.0923 9.25372 11.0923H4.43177V16.5824L9.1692 16.5827ZM22.4396 16.1627C23.0412 16.7421 23.906 17.031 25.0341 17.031C25.8421 17.031 26.5379 16.8306 27.1206 16.4288C27.7034 16.0278 28.0607 15.6027 28.1922 15.1543H31.7171C31.1534 16.8909 30.2882 18.133 29.1229 18.8797C27.9569 19.6268 26.5469 20.0002 24.8927 20.0002C23.746 20.0002 22.7118 19.8181 21.7907 19.4538C20.8694 19.0899 20.089 18.5715 19.4503 17.8993C18.811 17.2272 18.3175 16.4247 17.9697 15.4906C17.6217 14.5571 17.4482 13.5298 17.4482 12.4093C17.4482 11.3265 17.6263 10.3181 17.9839 9.38427C18.3407 8.45077 18.8482 7.64304 19.5068 6.96108C20.1644 6.27976 20.9496 5.74282 21.8615 5.35056C22.7731 4.9583 23.7836 4.76241 24.8929 4.76241C26.1337 4.76241 27.2145 5.00044 28.1361 5.47665C29.0569 5.9527 29.8137 6.593 30.4062 7.39532C30.9983 8.19843 31.4257 9.11365 31.6894 10.1403C31.9526 11.1676 32.0462 12.2412 31.9715 13.3617H21.453C21.5092 14.6499 21.8376 15.5841 22.4396 16.1627ZM26.9656 8.54363C26.4864 8.02099 25.7576 7.75927 24.7803 7.75927C24.141 7.75927 23.6101 7.86692 23.1872 8.08141C22.7641 8.29654 22.4256 8.56207 22.1717 8.87976C21.9181 9.19744 21.7392 9.53373 21.6361 9.88814C21.5325 10.243 21.4714 10.5606 21.4527 10.8406H27.9667C27.7788 9.83202 27.4452 9.06658 26.9656 8.54363ZM20.7688 1.01554H28.9077V3.25715H20.7688V1.01554Z" fill="white"/>
</g>
<defs>
<clipPath id="clip0_384_625">
<rect width="32" height="20" fill="white"/>
</clipPath>
</defs>
</svg>
