<svg width="40" height="40" viewBox="0 0 40 40" fill="none" xmlns="http://www.w3.org/2000/svg">
<g clip-path="url(#clip0_295_180)">
<path d="M29.9998 0H10.0002C4.50087 0 0.000488281 4.50038 0.000488281 9.99976V30.0002C0.000488281 35.4982 4.50087 40 10.0002 40H29.9998C35.4991 40 39.9995 35.4982 39.9995 30.0002V9.99976C39.9995 4.50038 35.4991 0 29.9998 0ZM36.6661 30.0002C36.6661 33.6752 33.6767 36.6666 29.9998 36.6666H10.0002C6.32485 36.6666 3.3339 33.6752 3.3339 30.0002V9.99976C3.3339 6.32387 6.32485 3.33341 10.0002 3.33341H29.9998C33.6767 3.33341 36.6661 6.32387 36.6661 9.99976V30.0002Z" fill="white" fill-opacity="1"/>
<path d="M30.8349 11.6664C32.2156 11.6664 33.3348 10.5471 33.3348 9.16644C33.3348 7.78576 32.2156 6.6665 30.8349 6.6665C29.4542 6.6665 28.335 7.78576 28.335 9.16644C28.335 10.5471 29.4542 11.6664 30.8349 11.6664Z" fill="white" fill-opacity="1"/>
<path d="M19.9998 10C14.4759 10 10 14.4764 10 19.9998C10 25.5211 14.4759 30.0005 19.9998 30.0005C25.5221 30.0005 29.9995 25.5211 29.9995 19.9998C29.9995 14.4764 25.5221 10 19.9998 10ZM19.9998 26.6671C16.3183 26.6671 13.3334 23.6822 13.3334 19.9998C13.3334 16.3173 16.3183 13.3334 19.9998 13.3334C23.6812 13.3334 26.6661 16.3173 26.6661 19.9998C26.6661 23.6822 23.6812 26.6671 19.9998 26.6671Z" fill="white" fill-opacity="1"/>
</g>
<defs>
<clipPath id="clip0_295_180">
<rect width="40" height="40" fill="white"/>
</clipPath>
</defs>
</svg>
