<svg width="25" height="23" viewBox="0 0 25 23" fill="none" xmlns="http://www.w3.org/2000/svg">
<path d="M0 2.67171C0 1.89729 0.28154 1.2584 0.844595 0.755049C1.40765 0.251675 2.13965 0 3.04054 0C3.92536 0 4.64124 0.247796 5.18822 0.743433C5.75128 1.25454 6.03282 1.92052 6.03282 2.74141C6.03282 3.48484 5.75934 4.10435 5.21236 4.59999C4.6493 5.1111 3.90927 5.36666 2.99228 5.36666H2.96815C2.08333 5.36666 1.36745 5.1111 0.820463 4.59999C0.27348 4.08888 0 3.44611 0 2.67171ZM0.313707 23V7.4808H5.67085V23H0.313707ZM8.639 23H13.9961V14.3343C13.9961 13.7922 14.0605 13.374 14.1892 13.0798C14.4144 12.5532 14.7563 12.1079 15.2148 11.7439C15.6733 11.3799 16.2484 11.198 16.9402 11.198C18.742 11.198 19.6429 12.3673 19.6429 14.706V23H25V14.102C25 11.8097 24.4369 10.0712 23.3108 8.88635C22.1847 7.7015 20.6966 7.10908 18.8465 7.10908C16.7712 7.10908 15.1544 7.96867 13.9961 9.68786V9.73433H13.972L13.9961 9.68786V7.4808H8.639C8.67116 7.97641 8.68726 9.51748 8.68726 12.104C8.68726 14.6905 8.67116 18.3225 8.639 23Z" fill="white"/>
</svg>
