<svg width="50" height="50" viewBox="0 0 50 50" fill="none" xmlns="http://www.w3.org/2000/svg">
<rect width="50" height="50" fill="white"/>
<path d="M25 8C30.5228 8 35 12.4772 35 18C35 21.725 31.586 28.1574 28.5977 33.1787C30.8023 33.4021 32.7748 33.827 34.3203 34.4062C35.3223 34.7818 36.1995 35.2423 36.8438 35.7959C37.4839 36.3461 38 37.0862 38 38C38 38.99 37.397 39.7744 36.6758 40.3428C35.9434 40.9199 34.9456 41.3961 33.8018 41.7773C31.5033 42.5435 28.3913 43 25 43C21.6087 43 18.4967 42.5435 16.1982 41.7773C15.0544 41.3961 14.0566 40.9199 13.3242 40.3428C12.603 39.7744 12 38.99 12 38C12 37.0789 12.524 36.3343 13.1719 35.7822C13.8243 35.2263 14.7124 34.7649 15.7275 34.3887C17.2648 33.819 19.2186 33.3991 21.4004 33.1777C18.4122 28.1567 15 21.7246 15 18C15 12.4772 19.4772 8 25 8ZM22.5537 35.085C20.1036 35.2594 17.9742 35.6888 16.4229 36.2637C15.5263 36.5959 14.8769 36.9578 14.4697 37.3047C14.0581 37.6554 14 37.8932 14 38C14 38.1145 14.0686 38.3829 14.5615 38.7715C15.0435 39.1513 15.8035 39.5374 16.8311 39.8799C18.8757 40.5614 21.7639 41 25 41C28.2361 41 31.1243 40.5614 33.1689 39.8799C34.1965 39.5374 34.9565 39.1513 35.4385 38.7715C35.9314 38.3829 36 38.1145 36 38C36 37.894 35.9434 37.6592 35.54 37.3125C35.1405 36.9692 34.5021 36.6103 33.6191 36.2793C32.0647 35.6967 29.9182 35.2618 27.4443 35.0859C26.4596 36.6898 25.591 38.0544 25 39C24.4088 38.0541 23.5388 36.6895 22.5537 35.085ZM25 10C20.5817 10 17 13.5817 17 18C17 19.0021 17.3586 20.4746 18.0762 22.3262C18.7767 24.1338 19.7501 26.1304 20.8232 28.1221C22.2229 30.7195 23.7529 33.2364 25 35.2373C26.2471 33.2364 27.7771 30.7195 29.1768 28.1221C30.2499 26.1304 31.2233 24.1338 31.9238 22.3262C32.6414 20.4746 33 19.0021 33 18C33 13.5817 29.4183 10 25 10ZM25 13C27.7614 13 30 15.2386 30 18C30 20.7614 27.7614 23 25 23C22.2386 23 20 20.7614 20 18C20 15.2386 22.2386 13 25 13ZM25 15C23.3431 15 22 16.3431 22 18C22 19.6569 23.3431 21 25 21C26.6569 21 28 19.6569 28 18C28 16.3431 26.6569 15 25 15Z" fill="#D9D9D9"/>
</svg>
