<svg width="42" height="42" viewBox="0 0 42 42" fill="none" xmlns="http://www.w3.org/2000/svg">
<path d="M40.3426 13.1556C40.2708 13.0838 40.1824 13.0396 40.0885 13.023C39.9946 13.0064 39.8896 13.023 39.8012 13.0672L38.3373 13.8019L38.0224 13.487L39.3482 12.1612L38.6853 11.4983L37.3595 12.8241L36.6966 12.1612L38.0224 10.8354L37.3595 10.1725L36.0337 11.4983L35.3707 10.8354L36.6966 9.50956L36.0337 8.84665L34.7078 10.1725L34.0449 9.50956L35.3707 8.18373L34.7078 7.52082L33.382 8.84665L32.7191 8.18373L34.0449 6.85791L33.382 6.195L32.0562 7.52082L31.7413 7.20594L32.476 5.74201C32.5644 5.56523 32.5313 5.34426 32.3876 5.20063C31.4761 4.28912 29.9846 4.28912 29.0731 5.20063L22.7754 11.4983L22.223 10.9459C20.5823 9.30516 17.8975 9.30516 16.2568 10.9459L12.7212 14.4814C12.5389 14.6637 12.5389 14.962 12.7212 15.1443L14.489 16.9121C14.6713 17.0944 14.9696 17.0944 15.1519 16.9121L18.6874 13.3765C18.9913 13.0727 19.4885 13.0727 19.7923 13.3765L20.3447 13.929L19.3504 14.9233C18.7095 15.5642 18.2897 16.4149 18.1571 17.3098C17.9969 18.4092 17.4832 19.4422 16.6987 20.2266L10.5115 26.4138C9.53925 27.3861 9.10283 28.7837 9.3459 30.1317L9.36248 30.2145L9.1857 30.3913C7.54499 32.032 7.54499 34.7168 9.1857 36.3575C10.8264 37.9982 13.5112 37.9982 15.1519 36.3575L15.3287 36.1807L15.4116 36.1973C16.7705 36.4404 18.1571 36.004 19.1294 35.0317L25.3166 28.8445C26.101 28.0601 27.1341 27.5463 28.2334 27.3861C29.1283 27.2535 29.9791 26.8337 30.6199 26.1929L40.3426 16.4701C41.2541 15.5586 41.2541 14.0671 40.3426 13.1556ZM21.0076 13.2661L20.4552 12.7136C19.7868 12.0452 18.693 12.0452 18.0245 12.7136L14.8205 15.9177L13.7156 14.8129L16.9197 11.6088C18.1958 10.3327 20.284 10.3327 21.5601 11.6088L22.1125 12.1612L21.0076 13.2661ZM11.1744 27.0767L17.3616 20.8896C18.2897 19.9615 18.8974 18.7351 19.0852 17.4424C19.1846 16.7464 19.5161 16.0834 20.0133 15.5863L22.223 13.3765C23.5433 12.0562 25.3718 11.3105 27.239 11.3215H27.5705L10.8375 31.3249L10.7214 31.1426C9.90385 29.8389 10.0862 28.165 11.1689 27.0712L11.1744 27.0767ZM28.6588 11.4817L28.7527 11.4983C31.3712 12.0839 33.4483 14.161 34.0394 16.785L34.056 16.8789L33.9897 16.9452C33.9842 16.9397 13.5223 34.0649 13.5223 34.0649L11.4783 32.021L28.6643 11.4872L28.6588 11.4817ZM14.1189 35.9984C12.8262 36.9597 10.9866 36.8326 9.84861 35.6946C8.71061 34.5566 8.58355 32.717 9.54478 31.4243L9.69393 31.231L9.80994 31.4464C9.99777 31.7889 10.2353 32.1038 10.517 32.3856L13.1687 35.0372C13.4449 35.3134 13.7598 35.551 14.1078 35.7443L14.3233 35.8603L14.1299 36.0095L14.1189 35.9984ZM29.957 25.5299C29.4598 26.0271 28.7969 26.3586 28.1008 26.458C26.8081 26.6459 25.5817 27.2535 24.6537 28.1816L18.4665 34.3688C17.3782 35.4571 15.7043 35.6394 14.3951 34.8162L14.2128 34.7002L34.2162 17.9672V18.2987C34.2327 20.1714 33.487 21.9999 32.1667 23.3202L29.957 25.5299ZM34.8294 20.6575L34.9509 20.1272C35.9397 15.8569 33.277 11.5812 29.0068 10.5923C27.8301 10.3216 26.5927 10.3216 25.416 10.5923L24.8857 10.7139L29.736 5.86354C30.1503 5.44922 30.7966 5.33321 31.327 5.58733L31.4706 5.65362L30.7525 7.08993C30.6641 7.26671 30.6972 7.48768 30.8408 7.63131L37.9119 14.7024C37.9837 14.7742 38.0721 14.8184 38.166 14.835C38.2599 14.8515 38.3649 14.835 38.4533 14.7908L39.8951 14.0671L39.9614 14.2107C40.21 14.7466 40.0995 15.3874 39.6797 15.8072L34.8294 20.6575Z" fill="white"/>
</svg>
